<svg width="20" height="20" viewBox="0 0 20 20" fill="none" xmlns="http://www.w3.org/2000/svg">
<path d="M20 2.5V7.5H15V6.25H18.0859C17.7018 5.48828 17.2233 4.80143 16.6504 4.18945C16.084 3.57096 15.4492 3.04688 14.7461 2.61719C14.043 2.18099 13.2878 1.8457 12.4805 1.61133C11.6797 1.37044 10.8529 1.25 10 1.25C8.9974 1.25 8.03385 1.40625 7.10938 1.71875C6.19141 2.02474 5.35156 2.46094 4.58984 3.02734C3.83464 3.58724 3.17383 4.26432 2.60742 5.05859C2.04753 5.84635 1.62109 6.72201 1.32812 7.68555L0.136719 7.31445C0.46224 6.23372 0.947266 5.24414 1.5918 4.3457C2.23633 3.44727 2.99154 2.67578 3.85742 2.03125C4.72982 1.38672 5.68685 0.888672 6.72852 0.537109C7.77669 0.179036 8.86719 0 10 0C10.8919 0 11.7611 0.110677 12.6074 0.332031C13.4538 0.553385 14.2513 0.875651 15 1.29883C15.7552 1.71549 16.4518 2.22656 17.0898 2.83203C17.7279 3.43099 18.2812 4.11133 18.75 4.87305V2.5H20ZM1.91406 13.75C2.29818 14.5117 2.77344 15.2018 3.33984 15.8203C3.91276 16.4323 4.55078 16.9564 5.25391 17.3926C5.95703 17.8223 6.70898 18.1576 7.50977 18.3984C8.31706 18.6328 9.14714 18.75 10 18.75H11.25V19.9023C11.0417 19.9284 10.8333 19.9512 10.625 19.9707C10.4167 19.9902 10.2083 20 10 20C9.11458 20 8.2487 19.8893 7.40234 19.668C6.55599 19.4401 5.75521 19.1146 5 18.6914C4.24479 18.2682 3.54818 17.7572 2.91016 17.1582C2.27214 16.5592 1.71875 15.8822 1.25 15.127V17.5H0V12.5H4.99023V13.75H1.91406ZM11.25 11.25H20V17.5H16.25V18.75H17.4902V20H13.75V18.75H15V17.5H11.25V11.25ZM12.5 16.25H18.75V12.5H12.5V16.25Z" fill="#323130"/>
</svg>
