<svg width="28" height="28" viewBox="0 0 28 28" fill="none" xmlns="http://www.w3.org/2000/svg">
<path d="M14 0C15.2852 0 16.5247 0.16862 17.7188 0.505859C18.9128 0.833984 20.0247 1.30339 21.0547 1.91406C22.0938 2.52474 23.0371 3.25846 23.8848 4.11523C24.7415 4.96289 25.4753 5.90625 26.0859 6.94531C26.6966 7.97526 27.166 9.08724 27.4941 10.2812C27.8314 11.4753 28 12.7148 28 14C28 15.2852 27.8314 16.5247 27.4941 17.7188C27.166 18.9128 26.6966 20.0293 26.0859 21.0684C25.4753 22.0983 24.7415 23.0417 23.8848 23.8984C23.0371 24.7461 22.0938 25.4753 21.0547 26.0859C20.0247 26.6966 18.9128 27.1706 17.7188 27.5078C16.5247 27.8359 15.2852 28 14 28C12.7148 28 11.4753 27.8359 10.2812 27.5078C9.08724 27.1706 7.9707 26.6966 6.93164 26.0859C5.90169 25.4753 4.95833 24.7461 4.10156 23.8984C3.25391 23.0417 2.52474 22.0983 1.91406 21.0684C1.30339 20.0293 0.829427 18.9128 0.492188 17.7188C0.164062 16.5247 0 15.2852 0 14C0 12.7148 0.164062 11.4753 0.492188 10.2812C0.829427 9.08724 1.30339 7.97526 1.91406 6.94531C2.52474 5.90625 3.25391 4.96289 4.10156 4.11523C4.95833 3.25846 5.90169 2.52474 6.93164 1.91406C7.9707 1.30339 9.08724 0.833984 10.2812 0.505859C11.4753 0.16862 12.7148 0 14 0ZM15.5449 14L20.2207 9.32422L18.6758 7.7793L14 12.4551L9.32422 7.7793L7.7793 9.32422L12.4551 14L7.7793 18.6758L9.32422 20.2207L14 15.5449L18.6758 20.2207L20.2207 18.6758L15.5449 14Z" fill="#C42B1C"/>
</svg>
