<svg width="27" height="27" viewBox="0 0 27 27" fill="none" xmlns="http://www.w3.org/2000/svg">
<path d="M13.125 0C14.3281 0 15.4902 0.159505 16.6113 0.478516C17.7324 0.788411 18.776 1.23047 19.7422 1.80469C20.7174 2.36979 21.6016 3.05339 22.3945 3.85547C23.1966 4.64844 23.8802 5.53255 24.4453 6.50781C25.0195 7.47396 25.4616 8.51758 25.7715 9.63867C26.0905 10.7598 26.25 11.9219 26.25 13.125C26.25 14.3281 26.0905 15.4902 25.7715 16.6113C25.4616 17.7324 25.0195 18.7806 24.4453 19.7559C23.8802 20.722 23.1966 21.6061 22.3945 22.4082C21.6016 23.2012 20.7174 23.8848 19.7422 24.459C18.776 25.0241 17.7324 25.4661 16.6113 25.7852C15.4902 26.0951 14.3281 26.25 13.125 26.25C11.9219 26.25 10.7598 26.0951 9.63867 25.7852C8.51758 25.4661 7.4694 25.0241 6.49414 24.459C5.52799 23.8848 4.64388 23.2012 3.8418 22.4082C3.04883 21.6061 2.36523 20.722 1.79102 19.7559C1.22591 18.7806 0.783854 17.737 0.464844 16.625C0.154948 15.5039 0 14.3372 0 13.125C0 11.9219 0.154948 10.7598 0.464844 9.63867C0.783854 8.51758 1.22591 7.47396 1.79102 6.50781C2.36523 5.53255 3.04883 4.64844 3.8418 3.85547C4.64388 3.05339 5.52799 2.36979 6.49414 1.80469C7.4694 1.23047 8.51302 0.788411 9.625 0.478516C10.7461 0.159505 11.9128 0 13.125 0ZM14 10.5H12.25V19.25H14V10.5ZM14 7H12.25V8.75H14V7Z" fill="#005FB7"/>
</svg>
