<svg width="155" height="90" viewBox="0 0 155 90" fill="none" xmlns="http://www.w3.org/2000/svg">
<path d="M6.92822 90H148.357V2.59039C148.357 1.15976 147.174 0 145.715 0H9.57008C8.11102 0 6.92822 1.15976 6.92822 2.59039V90Z" fill="url(#paint0_linear)"/>
<path d="M155 86H0V88.0574C0 89.1303 1.48958 90 3.32711 90H151.673C153.51 90 155 89.1303 155 88.0574V86H155Z" fill="url(#paint1_linear)"/>
<path d="M76.8891 3.33279C77.1959 3.33279 77.4446 3.08406 77.4446 2.77724C77.4446 2.47041 77.1959 2.22168 76.8891 2.22168C76.5822 2.22168 76.3335 2.47041 76.3335 2.77724C76.3335 3.08406 76.5822 3.33279 76.8891 3.33279Z" fill="#797673"/>
<rect x="9" y="5" width="137" height="78" fill="url(#paint2_linear)"/>
<path d="M118.893 45.4536H106.438V54.4436L118.893 56.2516V45.4536Z" fill="white" fill-opacity="0.2"/>
<path d="M105.634 45.4536H96.3926V52.9871L105.634 54.3281V45.4536Z" fill="white" fill-opacity="0.2"/>
<path d="M118.893 33.7495L106.438 35.5274V44.6479H118.893V33.7495Z" fill="white" fill-opacity="0.2"/>
<path d="M105.634 35.6436L96.3926 36.9644V44.6486H105.634V35.6436Z" fill="white" fill-opacity="0.2"/>
<defs>
<linearGradient id="paint0_linear" x1="77.6425" y1="-7.01036" x2="77.6425" y2="110.882" gradientUnits="userSpaceOnUse">
<stop stop-color="#DEDCDA"/>
<stop offset="0.3211" stop-color="#D4D2CF"/>
<stop offset="0.8801" stop-color="#BAB7B3"/>
<stop offset="1" stop-color="#B4B0AB"/>
</linearGradient>
<linearGradient id="paint1_linear" x1="77.5" y1="80.6868" x2="77.5" y2="93.3671" gradientUnits="userSpaceOnUse">
<stop stop-color="#B4B0AB"/>
<stop offset="0.2402" stop-color="#AEABA6"/>
<stop offset="0.5421" stop-color="#9F9B98"/>
<stop offset="0.8758" stop-color="#85827F"/>
<stop offset="1" stop-color="#7A7674"/>
</linearGradient>
<linearGradient id="paint2_linear" x1="8.66059" y1="46.9773" x2="145.741" y2="46.9773" gradientUnits="userSpaceOnUse">
<stop stop-color="#00B0FC"/>
<stop offset="1" stop-color="#0643BD"/>
</linearGradient>
</defs>
</svg>
